<svg width="24" height="24" viewBox="0 0 24 24" fill="current" xmlns="http://www.w3.org/2000/svg">
<path d="M17 17.5L11.5 12L17 6.5" stroke="#171B1E" stroke-width="2" stroke-linecap="round" stroke-linejoin="round"/>
<path d="M8 6.5V17.5" stroke="#171B1E" stroke-width="2" stroke-linecap="round"/>
<g clip-path="url(#clip0_3570_4442)">
<path d="M12.9142 12L17.7071 7.20711C18.0976 6.81658 18.0976 6.18342 17.7071 5.79289C17.3166 5.40237 16.6834 5.40237 16.2929 5.79289L10.7929 11.2929C10.4024 11.6834 10.4024 12.3166 10.7929 12.7071L16.2929 18.2071C16.6834 18.5976 17.3166 18.5976 17.7071 18.2071C18.0976 17.8166 18.0976 17.1834 17.7071 16.7929L12.9142 12Z" fill="#171B1E"/>
<path d="M9 6.5C9 5.94772 8.55228 5.5 8 5.5C7.44772 5.5 7 5.94772 7 6.5V17.5C7 18.0523 7.44772 18.5 8 18.5C8.55228 18.5 9 18.0523 9 17.5V6.5Z" fill="#171B1E"/>
</g>
<defs>
<clipPath id="clip0_3570_4442">
<rect width="11" height="14" fill="current" transform="translate(7 5)"/>
</clipPath>
</defs>
</svg>
