<svg width="24" height="24" viewBox="0 0 24 24" fill="current" xmlns="http://www.w3.org/2000/svg">
<g clip-path="url(#clip0_211_5632)">
<g clip-path="url(#clip1_211_5632)">
<path d="M9 7.00006C9 6.44778 9.44772 6.00006 10 6.00006H14C14.5523 6.00006 15 6.44778 15 7.00006C15 7.55235 14.5523 8.00006 14 8.00006H10C9.44772 8.00006 9 7.55235 9 7.00006Z" fill="current"/>
<path d="M12 16.0001C11.4477 16.0001 11 16.4478 11 17.0001C11 17.5523 11.4477 18.0001 12 18.0001H12.1C12.6523 18.0001 13.1 17.5523 13.1 17.0001C13.1 16.4478 12.6523 16.0001 12.1 16.0001H12Z" fill="current"/>
<path fill-rule="evenodd" clip-rule="evenodd" d="M4 5.25006C4 3.42117 5.52698 2.00006 7.33334 2.00006L16.6667 2.00007C18.473 2.00008 20 3.42118 20 5.25007V18.7501C20 20.579 18.473 22.0001 16.6667 22.0001H7.33333C5.52697 22.0001 4 20.579 4 18.7501V5.25006ZM7.33334 4.00006C6.56236 4.00006 6 4.59367 6 5.25006V18.7501C6 19.4065 6.56236 20.0001 7.33333 20.0001H16.6667C17.4376 20.0001 18 19.4065 18 18.7501V5.25007C18 4.59369 17.4376 4.00008 16.6667 4.00007L7.33334 4.00006Z" fill="current"/>
</g>
</g>
<defs>
<clipPath id="clip0_211_5632">
<rect width="24" height="24" fill="current"/>
</clipPath>
<clipPath id="clip1_211_5632">
<rect width="18" height="20" fill="current" transform="translate(3 2.00006)"/>
</clipPath>
</defs>
</svg>
