<svg width="24" height="24" viewBox="0 0 24 24" fill="current" xmlns="http://www.w3.org/2000/svg">
<g clip-path="url(#clip0_120_76025)">
<path fill-rule="evenodd" clip-rule="evenodd" d="M7.10002 9H7.31034C8.24352 9 9 9.75648 9 10.6897V16.3103C9 17.2435 8.24352 18 7.31034 18H6.5C4.01472 18 2 15.9853 2 13.5C2 11.5255 3.27162 9.84809 5.04057 9.24194C5.41849 5.73249 8.39014 3 12 3C15.6099 3 18.5815 5.73249 18.9594 9.24194C20.7284 9.8481 22 11.5255 22 13.5C22 15.5298 20.6561 17.2457 18.8096 17.8065L18.376 19.3242C18.008 20.6121 16.8308 21.5 15.4914 21.5H13C12.4477 21.5 12 21.0523 12 20.5C12 19.9477 12.4477 19.5 13 19.5H15.4914C15.9379 19.5 16.3303 19.204 16.4529 18.7747L16.6743 17.9999C15.7482 17.9917 15 17.2384 15 16.3103V10.6897C15 9.75648 15.7565 9 16.6897 9H16.9C16.4367 6.71776 14.419 5 12 5C9.58104 5 7.56329 6.71776 7.10002 9ZM4 13.5C4 12.1193 5.11929 11 6.5 11H7V16H6.5C5.11929 16 4 14.8807 4 13.5ZM17.5 11C18.8807 11 20 12.1193 20 13.5C20 14.8807 18.8807 16 17.5 16H17V11H17.5Z" fill="current"/>
</g>
<defs>
<clipPath id="clip0_120_76025">
<rect width="20" height="19" fill="current" transform="translate(2 3)"/>
</clipPath>
</defs>
</svg>
