<svg width="24" height="24" viewBox="0 0 24 24" fill="current" xmlns="http://www.w3.org/2000/svg">
<g clip-path="url(#clip0_120_76022)">
<circle cx="16.75" cy="9.75" r="1.25" fill="current"/>
<circle cx="14.75" cy="12.75" r="1.25" fill="current"/>
<path d="M8.5 8.47461C9.05228 8.47461 9.5 8.92232 9.5 9.47461V10.4746H10.5C11.0523 10.4746 11.5 10.9223 11.5 11.4746C11.5 12.0269 11.0523 12.4746 10.5 12.4746H9.5V13.4746C9.5 14.0269 9.05228 14.4746 8.5 14.4746C7.94772 14.4746 7.5 14.0269 7.5 13.4746V12.4746H6.5C5.94772 12.4746 5.5 12.0269 5.5 11.4746C5.5 10.9223 5.94772 10.4746 6.5 10.4746H7.5V9.47461C7.5 8.92232 7.94772 8.47461 8.5 8.47461Z" fill="current"/>
<path fill-rule="evenodd" clip-rule="evenodd" d="M2 9.37274C2 6.16455 4.83888 3.71535 8.04447 4.02682L11.5594 4.36833C11.8524 4.3968 12.1476 4.3968 12.4406 4.36833L15.9555 4.02682C19.1611 3.71535 22 6.16455 22 9.37274V15.6191C22 19.8221 16.4429 21.276 14.2056 17.8437C13.3571 16.5419 11.3943 16.4952 10.4818 17.7617L10.226 18.1168C7.7196 21.5957 2 19.9527 2 15.5676V9.37274ZM7.85106 6.01744C5.75848 5.81412 4 7.40742 4 9.37274V15.5676C4 17.8817 7.15571 18.9569 8.60326 16.9477L8.85908 16.5926C10.5903 14.1896 14.2631 14.2692 15.8811 16.7516C17.1045 18.6284 20 17.7004 20 15.6191V9.37274C20 7.40742 18.2415 5.81412 16.1489 6.01744L12.634 6.35896C12.2124 6.39993 11.7876 6.39993 11.366 6.35896L7.85106 6.01744Z" fill="current"/>
</g>
<defs>
<clipPath id="clip0_120_76022">
<rect width="20" height="16" fill="current" transform="translate(2 4)"/>
</clipPath>
</defs>
</svg>
