<svg width="24" height="24" viewBox="0 0 24 24" fill="current" xmlns="http://www.w3.org/2000/svg">
<g clip-path="url(#clip0_120_76044)">
<path fill-rule="evenodd" clip-rule="evenodd" d="M8 2.5C8.55228 2.5 9 2.94772 9 3.5V4H15V3.5C15 2.94772 15.4477 2.5 16 2.5C16.5523 2.5 17 2.94772 17 3.5V4C19.2091 4 21 5.79086 21 8V17C21 19.2091 19.2091 21 17 21H7C4.79086 21 3 19.2091 3 17V8C3 5.79086 4.79086 4 7 4V3.5C7 2.94772 7.44772 2.5 8 2.5ZM15 6V6.5C15 7.05228 15.4477 7.5 16 7.5C16.5523 7.5 17 7.05228 17 6.5V6C18.1046 6 19 6.89543 19 8H5C5 6.89543 5.89543 6 7 6V6.5C7 7.05228 7.44772 7.5 8 7.5C8.55228 7.5 9 7.05228 9 6.5V6H15ZM5 10V17C5 18.1046 5.89543 19 7 19H17C18.1046 19 19 18.1046 19 17V10H5Z" fill="current"/>
</g>
<defs>
<clipPath id="clip0_120_76044">
<rect width="18" height="19" fill="current" transform="translate(3 2)"/>
</clipPath>
</defs>
</svg>
