<svg width="24" height="24" viewBox="0 0 24 24" fill="current" xmlns="http://www.w3.org/2000/svg">
<g clip-path="url(#clip0_120_76043)">
<path fill-rule="evenodd" clip-rule="evenodd" d="M6.29289 10.2929C6.68342 9.90237 7.31658 9.90237 7.70711 10.2929L12 14.5858L16.2929 10.2929C16.6834 9.90237 17.3166 9.90237 17.7071 10.2929C18.0976 10.6834 18.0976 11.3166 17.7071 11.7071L12.7071 16.7071C12.3166 17.0976 11.6834 17.0976 11.2929 16.7071L6.29289 11.7071C5.90237 11.3166 5.90237 10.6834 6.29289 10.2929Z" fill="current"/>
<path fill-rule="evenodd" clip-rule="evenodd" d="M12 3C12.5523 3 13 3.44772 13 4V16C13 16.5523 12.5523 17 12 17C11.4477 17 11 16.5523 11 16V4C11 3.44772 11.4477 3 12 3Z" fill="current"/>
<path fill-rule="evenodd" clip-rule="evenodd" d="M5 20C5 19.4477 5.44772 19 6 19H18C18.5523 19 19 19.4477 19 20C19 20.5523 18.5523 21 18 21H6C5.44772 21 5 20.5523 5 20Z" fill="current"/>
</g>
<defs>
<clipPath id="clip0_120_76043">
<rect width="14" height="18" fill="current" transform="translate(5 3)"/>
</clipPath>
</defs>
</svg>
