<svg width="24" height="24" viewBox="0 0 24 24" fill="current" xmlns="http://www.w3.org/2000/svg">
<g clip-path="url(#clip0_120_76021)">
<path fill-rule="evenodd" clip-rule="evenodd" d="M3 7C3 4.79086 4.79086 3 7 3H17C19.2091 3 21 4.79086 21 7V17C21 19.2091 19.2091 21 17 21H7C4.79086 21 3 19.2091 3 17V7ZM19 13V7C19 5.89543 18.1046 5 17 5H15V13H19ZM15 15H19V17C19 18.1046 18.1046 19 17 19H15V15ZM13 5H7C5.89543 5 5 5.89543 5 7V17C5 18.1046 5.89543 19 7 19H13V5Z" fill="current"/>
</g>
<defs>
<clipPath id="clip0_120_76021">
<rect width="18" height="18" fill="current" transform="translate(3 3)"/>
</clipPath>
</defs>
</svg>
