<svg width="24" height="24" viewBox="0 0 24 24" fill="current" xmlns="http://www.w3.org/2000/svg">
<path fill-rule="evenodd" clip-rule="evenodd" d="M10.2766 3.03579C9.78761 2.38374 9.02012 2 8.20507 2C6.42142 2 5.20014 3.76327 5.75391 5.4246C5.83527 5.66867 5.95129 5.8966 6.09608 6.10256C4.32231 6.51229 3 8.10173 3 10V17C3 19.2091 4.79086 21 7 21H17C19.2091 21 21 19.2091 21 17V10C21 8.10172 19.6777 6.51229 17.9039 6.10256C18.0487 5.8966 18.1647 5.66867 18.2461 5.4246C18.7999 3.76327 17.5786 2 15.7949 2C14.9799 2 14.2124 2.38374 13.7234 3.03579L12 5.33359L10.2766 3.03579ZM8.20507 4C8.39061 4 8.56532 4.08736 8.67664 4.23579L9.62939 5.50611L8.11042 5.20232C7.9017 5.16058 7.72175 5.00357 7.65128 4.79214C7.5189 4.39501 7.81891 4 8.20507 4ZM5 14.5V17C5 18.1046 5.89543 19 7 19H11V14.5L5 14.5ZM11 12.5L5 12.5V10C5 8.89543 5.89543 8 7 8H11V12.5ZM13 14.5V19H17C18.1046 19 19 18.1046 19 17V14.5L13 14.5ZM19 12.5L13 12.5V8H17C18.1046 8 19 8.89543 19 10V12.5ZM15.3234 4.23579C15.4347 4.08736 15.6094 4 15.7949 4C16.1811 4 16.4811 4.39501 16.3487 4.79214C16.2782 5.00357 16.0983 5.16058 15.8896 5.20232L14.3706 5.50611L15.3234 4.23579Z" fill="current"/>
</svg>
