<svg width="24" height="24" viewBox="0 0 24 24" fill="current" xmlns="http://www.w3.org/2000/svg">
<g clip-path="url(#clip0_120_76036)">
<path fill-rule="evenodd" clip-rule="evenodd" d="M2.38862 14.3676C2.43177 13.6341 2.74258 12.942 3.26212 12.4224L12.9775 2.70708C14.1491 1.53551 16.0486 1.53551 17.2201 2.70708L20.0486 5.53551C21.2201 6.70708 21.2201 8.60657 20.0486 9.77815L17.9461 11.8806C17.94 11.887 17.9339 11.8933 17.9276 11.8996C17.9213 11.9059 17.915 11.912 17.9086 11.9181L10.3332 19.4935C9.81365 20.0131 9.12151 20.3239 8.38804 20.367L5.38283 20.5438C3.58967 20.6493 2.10636 19.166 2.21184 17.3728L2.38862 14.3676ZM17.2202 9.77803L18.6343 8.36393C19.0249 7.97341 19.0249 7.34024 18.6343 6.94972L15.8059 4.12129C15.4154 3.73077 14.7822 3.73077 14.3917 4.12129L12.9776 5.53539L17.2202 9.77803ZM11.5634 6.9496L15.806 11.1922L8.91898 18.0793C8.7458 18.2525 8.51508 18.3561 8.27059 18.3705L5.26539 18.5472C4.66767 18.5824 4.17323 18.088 4.20839 17.4902L4.38517 14.485C4.39955 14.2406 4.50316 14.0098 4.67634 13.8367L11.5634 6.9496Z" fill="current"/>
<path d="M16.4279 19.7507C16.0723 19.1303 15.3836 19.1034 14.9832 19.6015C14.9717 19.6158 14.9598 19.6297 14.9475 19.6434L14.2476 20.422C13.8784 20.8328 13.2462 20.8664 12.8354 20.4973C12.4247 20.1281 12.391 19.4958 12.7602 19.085L13.4434 18.325C14.7643 16.7126 17.1391 16.9695 18.1631 18.7563C18.4945 19.3346 19.1081 19.3902 19.5094 19.0122L20.7519 17.5944C21.1159 17.1791 21.7477 17.1375 22.163 17.5015C22.5784 17.8655 22.62 18.4973 22.256 18.9126L20.9874 20.3602C20.9725 20.3771 20.9571 20.3936 20.9411 20.4095C19.5536 21.7921 17.3805 21.413 16.4279 19.7507Z" fill="current"/>
</g>
<defs>
<clipPath id="clip0_120_76036">
<rect width="21" height="21" fill="current" transform="translate(2 1)"/>
</clipPath>
</defs>
</svg>
