<svg width="24" height="24" viewBox="0 0 24 24" fill="current" xmlns="http://www.w3.org/2000/svg">
<g clip-path="url(#clip0_120_76037)">
<path fill-rule="evenodd" clip-rule="evenodd" d="M5.49805 21.9989C3.84119 21.9989 2.49805 20.6557 2.49805 18.9989V9.61469C2.49805 8.64722 2.96462 7.73913 3.75114 7.17578L10.2511 2.52007C11.2956 1.77196 12.7005 1.77196 13.745 2.52007L20.245 7.17577C21.0315 7.73913 21.498 8.64722 21.498 9.61469V18.9989C21.498 20.6557 20.1549 21.9989 18.498 21.9989H5.49805ZM11.4157 4.14601C11.7639 3.89664 12.2322 3.89664 12.5803 4.14601L19.0803 8.80172C19.3425 8.98951 19.498 9.2922 19.498 9.61469V18.9989C19.498 19.5512 19.0503 19.9989 18.498 19.9989H16V15.999C16 13.7899 14.2091 11.999 12 11.999C9.79086 11.999 8 13.7899 8 15.999V19.9989H5.49805C4.94576 19.9989 4.49805 19.5512 4.49805 18.9989V9.61469C4.49805 9.2922 4.65357 8.98951 4.91574 8.80172L11.4157 4.14601ZM14 19.9989H10V15.999C10 14.8945 10.8954 13.999 12 13.999C13.1046 13.999 14 14.8945 14 15.999V19.9989Z" fill="current"/>
</g>
<defs>
<clipPath id="clip0_120_76037">
<rect width="21" height="21" fill="current" transform="translate(1.5 1.5)"/>
</clipPath>
</defs>
</svg>
