<svg width="24" height="24" viewBox="0 0 24 24" fill="current" xmlns="http://www.w3.org/2000/svg">
<g clip-path="url(#clip0_120_76034)">
<path d="M3 5.5C3 4.11929 4.11929 3 5.5 3H12.5C13.8807 3 15 4.11929 15 5.5V6.5C15 7.05228 14.5523 7.5 14 7.5C13.4477 7.5 13 7.05228 13 6.5V5.5C13 5.22386 12.7761 5 12.5 5H5.5C5.22386 5 5 5.22386 5 5.5V18.5C5 18.7761 5.22386 19 5.5 19H12.5C12.7761 19 13 18.7761 13 18.5V17.5C13 16.9477 13.4477 16.5 14 16.5C14.5523 16.5 15 16.9477 15 17.5V18.5C15 19.8807 13.8807 21 12.5 21H5.5C4.11929 21 3 19.8807 3 18.5V5.5Z" fill="current"/>
<path d="M8 12C8 11.4477 8.44772 11 9 11L18.5856 11L17.2927 9.70711C16.9022 9.31658 16.9022 8.68342 17.2927 8.29289C17.6833 7.90237 18.3164 7.90237 18.7069 8.29289L21.5655 11.1515C22.0341 11.6201 22.0342 12.3799 21.5655 12.8485L18.7069 15.7071C18.3164 16.0976 17.6833 16.0976 17.2927 15.7071C16.9022 15.3166 16.9022 14.6834 17.2927 14.2929L18.5856 13L9 13C8.44772 13 8 12.5523 8 12Z" fill="current"/>
</g>
<defs>
<clipPath id="clip0_120_76034">
<rect width="19" height="18" fill="current" transform="translate(3 3)"/>
</clipPath>
</defs>
</svg>
