<svg width="24" height="24" viewBox="0 0 24 24" fill="current" xmlns="http://www.w3.org/2000/svg">
<g clip-path="url(#clip0_120_76023)">
<path fill-rule="evenodd" clip-rule="evenodd" d="M5.50179 2.99066C6.44305 2.6769 7.67979 2.5 9 2.5C10.3202 2.5 11.5569 2.6769 12.4982 2.99066C12.9636 3.14579 13.4124 3.35256 13.7653 3.63072C14.107 3.9 14.5 4.35516 14.5 5V10.707C14.9768 10.5722 15.48 10.5 16 10.5C19.0376 10.5 21.5 12.9624 21.5 16C21.5 19.0376 19.0376 21.5 16 21.5C14.1808 21.5 12.568 20.6168 11.5668 19.2558C10.8013 19.4137 9.92218 19.5 9 19.5C7.67979 19.5 6.44305 19.3231 5.50179 19.0093C5.03639 18.8542 4.58762 18.6474 4.23466 18.3693C3.89297 18.1 3.5 17.6448 3.5 17V5C3.5 4.35516 3.89297 3.9 4.23466 3.63072C4.58762 3.35256 5.03639 3.14579 5.50179 2.99066ZM5.83749 5C5.92252 4.96347 6.02109 4.92574 6.13425 4.88802C6.82166 4.65888 7.83493 4.5 9 4.5C10.1651 4.5 11.1783 4.65888 11.8658 4.88802C11.9789 4.92574 12.0775 4.96347 12.1625 5C12.0775 5.03652 11.9789 5.07426 11.8658 5.11198C11.1783 5.34112 10.1651 5.5 9 5.5C7.83493 5.5 6.82166 5.34112 6.13425 5.11198C6.02109 5.07426 5.92252 5.03653 5.83749 5ZM5.5 11.0087V12.819C5.61048 12.8983 5.81392 13.0052 6.13425 13.112C6.82166 13.3411 7.83493 13.5 9 13.5C9.83636 13.5 10.5968 13.4181 11.2151 13.2861C11.5476 12.7011 11.9843 12.183 12.5 11.7572V11.0087C12.4994 11.0089 12.4988 11.0091 12.4982 11.0093C11.5569 11.3231 10.3202 11.5 9 11.5C7.67979 11.5 6.44305 11.3231 5.50179 11.0093C5.50119 11.0091 5.5006 11.0089 5.5 11.0087ZM12.5 8.81902V7.00875C12.4994 7.00894 12.4988 7.00914 12.4982 7.00934C11.5569 7.3231 10.3202 7.5 9 7.5C7.67979 7.5 6.44305 7.3231 5.50179 7.00934C5.50119 7.00914 5.5006 7.00894 5.5 7.00875V8.81902C5.61048 8.89831 5.81392 9.0052 6.13425 9.11198C6.82166 9.34112 7.83493 9.5 9 9.5C10.1651 9.5 11.1783 9.34112 11.8658 9.11198C12.1861 9.0052 12.3895 8.89831 12.5 8.81902ZM5.5 15.0087V16.819C5.61048 16.8983 5.81392 17.0052 6.13425 17.112C6.82166 17.3411 7.83493 17.5 9 17.5C9.60683 17.5 10.1737 17.4569 10.6753 17.3828C10.5609 16.941 10.5 16.4776 10.5 16C10.5 15.8033 10.5103 15.609 10.5305 15.4177C10.0433 15.4716 9.52874 15.5 9 15.5C7.67979 15.5 6.44305 15.3231 5.50179 15.0093C5.50119 15.0091 5.5006 15.0089 5.5 15.0087ZM16 12.5C14.067 12.5 12.5 14.067 12.5 16C12.5 17.933 14.067 19.5 16 19.5C17.933 19.5 19.5 17.933 19.5 16C19.5 14.067 17.933 12.5 16 12.5Z" fill="current"/>
</g>
<defs>
<clipPath id="clip0_120_76023">
<rect width="19" height="20" fill="current" transform="translate(3 2)"/>
</clipPath>
</defs>
</svg>
