<svg width="24" height="24" viewBox="0 0 24 24" fill="current" xmlns="http://www.w3.org/2000/svg">
<g clip-path="url(#clip0_120_76024)">
<path fill-rule="evenodd" clip-rule="evenodd" d="M12 8C10.067 8 8.5 9.567 8.5 11.5C8.5 13.433 10.067 15 12 15C13.933 15 15.5 13.433 15.5 11.5C15.5 9.567 13.933 8 12 8ZM10.5 11.5C10.5 10.6716 11.1716 10 12 10C12.8284 10 13.5 10.6716 13.5 11.5C13.5 12.3284 12.8284 13 12 13C11.1716 13 10.5 12.3284 10.5 11.5Z" fill="current"/>
<path d="M8 16.5C8 15.9477 8.44772 15.5 9 15.5H15C15.5523 15.5 16 15.9477 16 16.5C16 17.0523 15.5523 17.5 15 17.5H9C8.44772 17.5 8 17.0523 8 16.5Z" fill="current"/>
<path fill-rule="evenodd" clip-rule="evenodd" d="M16.437 3.49997H17C18.6569 3.49997 20 4.84312 20 6.49997V19C20 20.6569 18.6569 22 17 22H7C5.34315 22 4 20.6569 4 19V6.49997C4 4.84312 5.34315 3.49997 7 3.49997H7.56302C7.78505 2.63737 8.56809 2 9.5 2H14.5C15.4319 2 16.215 2.63737 16.437 3.49997ZM7.563 5.49997H7C6.44772 5.49997 6 5.94769 6 6.49997V19C6 19.5523 6.44772 20 7 20H17C17.5523 20 18 19.5523 18 19V6.49997C18 5.94768 17.5523 5.49997 17 5.49997H16.437C16.215 6.3626 15.4319 7 14.5 7H9.5C8.56807 7 7.78501 6.3626 7.563 5.49997ZM9.5 4H14.5V5H9.5V4Z" fill="current"/>
</g>
<defs>
<clipPath id="clip0_120_76024">
<rect width="16" height="20" fill="current" transform="translate(4 2)"/>
</clipPath>
</defs>
</svg>
