<svg width="24" height="24" viewBox="0 0 24 24" fill="current" xmlns="http://www.w3.org/2000/svg">
<g clip-path="url(#clip0_120_76042)">
<path fill-rule="evenodd" clip-rule="evenodd" d="M8.27273 3C8.27273 2.44772 8.72044 2 9.27273 2H14.7273C15.0579 2 15.3672 2.16346 15.5535 2.43666L17.074 4.66667H20.1818C20.9221 4.66667 21.6364 4.95399 22.1666 5.47236C22.6975 5.99147 23 6.70039 23 7.44444V15.7467C23 16.299 22.5523 16.7467 22 16.7467C21.4477 16.7467 21 16.299 21 15.7467V7.44444C21 7.24551 20.9194 7.05005 20.7683 6.90237C20.6165 6.75394 20.406 6.66667 20.1818 6.66667H16.5455C16.2148 6.66667 15.9055 6.50321 15.7192 6.23L14.1988 4H9.27273C8.72044 4 8.27273 3.55228 8.27273 3ZM3.81818 6.66667C3.59403 6.66667 3.38345 6.75395 3.23165 6.90237C3.08061 7.05005 3 7.24551 3 7.44444V17.2222C3 17.4212 3.08061 17.6166 3.23165 17.7643C3.38345 17.9127 3.59403 18 3.81818 18H16.5229L14.3246 15.8383C14.324 15.8386 14.3235 15.839 14.3229 15.8393C13.7365 16.1765 13.0826 16.3826 12.4077 16.4439C11.7328 16.5052 11.052 16.4204 10.4135 16.1951C9.77489 15.9697 9.19315 15.6089 8.71036 15.1369C8.22749 14.6647 7.85544 14.0928 7.62224 13.461C7.38901 12.8292 7.30082 12.1541 7.36449 11.4841C7.42806 10.8153 7.64126 10.1694 7.98778 9.59244L5.08361 6.66667H3.81818ZM9.48629 11.0807C9.41872 11.2722 9.37473 11.4711 9.35552 11.6733C9.32032 12.0437 9.36895 12.4175 9.4985 12.7685C9.62807 13.1195 9.83584 13.4402 10.1086 13.7068C10.3814 13.9736 10.7125 14.1797 11.0791 14.3091C11.4457 14.4385 11.8376 14.4875 12.2267 14.4521C12.4218 14.4344 12.6134 14.3957 12.7981 14.3373L9.48629 11.0807ZM10.0105 8.79121L6.20972 4.96219C6.02198 4.77304 5.7665 4.66667 5.5 4.66667H3.81818C3.07791 4.66667 2.36357 4.95399 1.83342 5.47236C1.3025 5.99147 1 6.70039 1 7.44444V17.2222C1 17.9663 1.3025 18.6752 1.83342 19.1943C2.36357 19.7127 3.07792 20 3.81818 20H18.5568L20.2989 21.713C20.6927 22.1003 21.3258 22.0949 21.713 21.7011C22.1003 21.3073 22.0949 20.6742 21.7011 20.287L19.8394 18.4563C19.7597 18.3335 19.6537 18.2292 19.5295 18.1515L10.0105 8.79121Z" fill="current"/>
</g>
<defs>
<clipPath id="clip0_120_76042">
<rect width="22" height="20" fill="current" transform="translate(1 2)"/>
</clipPath>
</defs>
</svg>
