<svg width="24" height="24" viewBox="0 0 24 24" fill="current" xmlns="http://www.w3.org/2000/svg">
<g opacity="0.65">
<path d="M4 18C4 15.7909 5.79086 14 8 14H16C18.2091 14 20 15.7909 20 18C20 19.1046 19.1046 20 18 20H6C4.89543 20 4 19.1046 4 18Z" fill="current" stroke="current" stroke-width="2" stroke-linejoin="round"/>
<circle cx="12" cy="7.5" r="3.5" fill="current" stroke="current" stroke-width="2"/>
<path fill-rule="evenodd" clip-rule="evenodd" d="M12 3C9.51472 3 7.5 5.01472 7.5 7.5C7.5 9.98528 9.51472 12 12 12C14.4853 12 16.5 9.98528 16.5 7.5C16.5 5.01472 14.4853 3 12 3ZM9.5 7.5C9.5 6.11929 10.6193 5 12 5C13.3807 5 14.5 6.11929 14.5 7.5C14.5 8.88071 13.3807 10 12 10C10.6193 10 9.5 8.88071 9.5 7.5Z" fill="current"/>
<path fill-rule="evenodd" clip-rule="evenodd" d="M8 13C5.23858 13 3 15.2386 3 18C3 19.6569 4.34315 21 6 21H18C19.6569 21 21 19.6569 21 18C21 15.2386 18.7614 13 16 13H8ZM5 18C5 16.3431 6.34315 15 8 15H16C17.6569 15 19 16.3431 19 18C19 18.5523 18.5523 19 18 19H6C5.44772 19 5 18.5523 5 18Z" fill="current"/>
</g>
</svg>
