<svg width="24" height="24" viewBox="0 0 24 24" fill="current" xmlns="http://www.w3.org/2000/svg">
<g clip-path="url(#clip0_120_76039)">
<path d="M5.50502 11.729C5.64742 7.98859 8.72463 5 12.4999 5C16.3659 5 19.4999 8.13401 19.4999 12C19.4999 15.866 16.3659 19 12.4999 19C10.6353 19 8.94284 18.2723 7.68749 17.0834C7.28649 16.7037 6.65356 16.7209 6.2738 17.1219C5.89403 17.5229 5.91125 18.1558 6.31224 18.5356C7.92422 20.0622 10.1036 21 12.4999 21C17.4704 21 21.4999 16.9706 21.4999 12C21.4999 7.02944 17.4704 3 12.4999 3C8.18621 3 4.58136 6.03476 3.70387 10.0857L3.3657 9.5C3.08956 9.02171 2.47797 8.85783 1.99968 9.13397C1.52139 9.41011 1.35751 10.0217 1.63365 10.5L3.63365 13.9641C3.9098 14.4424 4.52139 14.6063 4.99968 14.3301L8.46378 12.3301C8.94207 12.054 9.10595 11.4424 8.8298 10.9641C8.55366 10.4858 7.94207 10.3219 7.46378 10.5981L5.50502 11.729Z" fill="current"/>
</g>
<defs>
<clipPath id="clip0_120_76039">
<rect width="20" height="18" fill="current" transform="translate(1.5 3)"/>
</clipPath>
</defs>
</svg>
