<svg width="24" height="24" viewBox="0 0 24 24" fill="current" xmlns="http://www.w3.org/2000/svg">
<g clip-path="url(#clip0_120_76041)">
<path fill-rule="evenodd" clip-rule="evenodd" d="M11.5 3C9.24566 3 7.08365 3.89553 5.48959 5.48959C3.89553 7.08365 3 9.24566 3 11.5C3 13.7543 3.89553 15.9163 5.48959 17.5104C7.08365 19.1045 9.24566 20 11.5 20C12.6162 20 13.7215 19.7801 14.7528 19.353C15.4747 19.054 16.1504 18.6575 16.7616 18.1758L20.2929 21.7071C20.6834 22.0976 21.3166 22.0976 21.7071 21.7071C22.0976 21.3166 22.0976 20.6834 21.7071 20.2929L18.1758 16.7616C18.6575 16.1504 19.054 15.4747 19.353 14.7528C19.7801 13.7215 20 12.6162 20 11.5C20 10.3838 19.7801 9.27846 19.353 8.24719C18.9258 7.21592 18.2997 6.27889 17.5104 5.48959C16.7211 4.70029 15.7841 4.07419 14.7528 3.64702C13.7215 3.21986 12.6162 3 11.5 3ZM6.90381 6.90381C8.12279 5.68482 9.77609 5 11.5 5C12.3536 5 13.1988 5.16813 13.9874 5.49478C14.7761 5.82144 15.4926 6.30023 16.0962 6.90381C16.6998 7.50739 17.1786 8.22394 17.5052 9.01256C17.8319 9.80117 18 10.6464 18 11.5C18 12.3536 17.8319 13.1988 17.5052 13.9874C17.1786 14.7761 16.6998 15.4926 16.0962 16.0962C15.4926 16.6998 14.7761 17.1786 13.9874 17.5052C13.1988 17.8319 12.3536 18 11.5 18C9.77609 18 8.12279 17.3152 6.90381 16.0962C5.68482 14.8772 5 13.2239 5 11.5C5 9.77609 5.68482 8.12279 6.90381 6.90381Z" fill="current"/>
</g>
<defs>
<clipPath id="clip0_120_76041">
<rect width="19" height="19" fill="current" transform="translate(3 3)"/>
</clipPath>
</defs>
</svg>
