<svg width="24" height="24" viewBox="0 0 24 24" fill="current" xmlns="http://www.w3.org/2000/svg">
<g clip-path="url(#clip0_120_76031)">
<path fill-rule="evenodd" clip-rule="evenodd" d="M12.002 8.00018C14.2111 8.00018 16.002 9.79104 16.002 12.0002C16.002 14.2093 14.2111 16.0002 12.002 16.0002C9.79281 16.0002 8.00195 14.2093 8.00195 12.0002C8.00195 9.79104 9.79281 8.00018 12.002 8.00018ZM14.002 12.0002C14.002 10.8956 13.1065 10.0002 12.002 10.0002C10.8974 10.0002 10.002 10.8956 10.002 12.0002C10.002 13.1048 10.8974 14.0002 12.002 14.0002C13.1065 14.0002 14.002 13.1048 14.002 12.0002Z" fill="current"/>
<path fill-rule="evenodd" clip-rule="evenodd" d="M12.0001 2.00018C11.434 2.00018 10.8782 2.04733 10.3365 2.1381C9.50642 2.2772 9.00518 2.91125 8.7827 3.46177C8.33732 4.56388 7.25781 5.33856 5.99976 5.33856C5.92289 5.33856 5.84687 5.33569 5.77179 5.33008C5.18005 5.28582 4.39355 5.4548 3.90161 6.13274C3.51539 6.665 3.1802 7.23705 2.90337 7.84173C2.50956 8.70195 2.85899 9.55457 3.28583 10.056C3.7319 10.58 4.00016 11.257 4.00016 11.9992C4.00016 12.7416 3.73176 13.4188 3.28548 13.9429C2.85856 14.4442 2.50898 15.2967 2.90264 16.157C3.17901 16.761 3.51361 17.3324 3.89913 17.8642C4.39121 18.5429 5.1785 18.7119 5.77066 18.6674C5.8461 18.6618 5.92248 18.6589 5.99973 18.6589C7.25846 18.6589 8.33845 19.4344 8.78339 20.5375C9.00568 21.0885 9.50712 21.7234 10.3379 21.8625C10.8791 21.9531 11.4345 22.0002 12.0001 22.0002C12.5654 22.0002 13.1204 21.9532 13.6613 21.8627C14.4922 21.7237 14.9937 21.0887 15.216 20.5375C15.661 19.4344 16.741 18.6589 17.9997 18.6589C18.0771 18.6589 18.1537 18.6618 18.2292 18.6675C18.8215 18.7121 19.6089 18.5431 20.1011 17.8643C20.4866 17.3325 20.8213 16.761 21.0977 16.157C21.4913 15.2967 21.1417 14.4442 20.7148 13.9428C20.2685 13.4188 20.0002 12.7416 20.0002 11.9992C20.0002 11.257 20.2684 10.58 20.7145 10.056C21.1413 9.55459 21.4907 8.70198 21.0969 7.84177C20.8201 7.23704 20.4848 6.66495 20.0986 6.13266C19.6066 5.45462 18.8199 5.2857 18.2281 5.33004C18.1529 5.33568 18.0767 5.33856 17.9997 5.33856C16.7417 5.33856 15.6621 4.56385 15.2168 3.4617C14.9943 2.91111 14.4929 2.27697 13.6628 2.13793C13.1214 2.04727 12.5659 2.00018 12.0001 2.00018ZM10.6755 4.13665C10.685 4.1223 10.6934 4.11204 10.6997 4.1052C11.1223 4.03617 11.5567 4.00018 12.0001 4.00018C12.4433 4.00018 12.8774 4.03613 13.2998 4.10506C13.3061 4.11191 13.3144 4.12216 13.3239 4.13652C13.3371 4.15648 13.3505 4.18157 13.3624 4.21102C14.1027 6.04303 15.8987 7.33856 17.9997 7.33856C18.1267 7.33856 18.2527 7.33381 18.3776 7.32445C18.4089 7.32211 18.4369 7.32305 18.4604 7.32599C18.4773 7.32811 18.4901 7.33105 18.4989 7.33364C18.7929 7.7422 19.0491 8.17938 19.2627 8.64008C19.2594 8.65036 19.2538 8.66448 19.2448 8.68178C19.232 8.70614 19.2142 8.73294 19.1915 8.75956C18.4491 9.63168 18.0002 10.7643 18.0002 11.9992C18.0002 13.2344 18.4494 14.3673 19.1921 15.2395C19.2148 15.2662 19.2326 15.2929 19.2454 15.3173C19.2544 15.3346 19.26 15.3487 19.2633 15.359C19.0501 15.8191 18.7943 16.2558 18.5009 16.664C18.4921 16.6665 18.4793 16.6695 18.4623 16.6716C18.4389 16.6745 18.4107 16.6755 18.3794 16.6731C18.2539 16.6637 18.1273 16.6589 17.9997 16.6589C15.8976 16.6589 14.1008 17.9558 13.3612 19.7894C13.3493 19.8189 13.3359 19.844 13.3227 19.864C13.3132 19.8784 13.3049 19.8886 13.2986 19.8955C12.8766 19.9643 12.4429 20.0002 12.0001 20.0002C11.5571 20.0002 11.1231 19.9643 10.7008 19.8954C10.6945 19.8885 10.6862 19.8782 10.6767 19.8639C10.6635 19.8439 10.6501 19.8188 10.6382 19.7893C9.89859 17.9557 8.10181 16.6589 5.99973 16.6589C5.87242 16.6589 5.74604 16.6637 5.62078 16.6731C5.58946 16.6754 5.56134 16.6745 5.5379 16.6715C5.52094 16.6694 5.50814 16.6665 5.49931 16.6639C5.20594 16.2558 4.9502 15.8191 4.73703 15.359C4.74031 15.3488 4.74585 15.3346 4.75493 15.3173C4.7677 15.293 4.78549 15.2662 4.80816 15.2396C5.55093 14.3674 6.00016 13.2345 6.00016 11.9992C6.00016 10.7643 5.55116 9.63165 4.80873 8.75953C4.78607 8.7329 4.76829 8.70611 4.75552 8.68174C4.74645 8.66445 4.7409 8.65032 4.73762 8.64004C4.95116 8.17938 5.20738 7.74223 5.5013 7.3337C5.51013 7.33111 5.5229 7.32817 5.53984 7.32605C5.56325 7.32312 5.59135 7.32217 5.62264 7.32451C5.7473 7.33383 5.87307 7.33856 5.99976 7.33856C8.1007 7.33856 9.89668 6.04309 10.637 4.21113C10.6489 4.18169 10.6624 4.1566 10.6755 4.13665Z" fill="current"/>
</g>
<defs>
<clipPath id="clip0_120_76031">
<rect width="18" height="20" fill="current" transform="translate(3 2.00018)"/>
</clipPath>
</defs>
</svg>
