<svg width="25" height="24" viewBox="0 0 25 24" fill="current" xmlns="http://www.w3.org/2000/svg">
<g id=" grap">
<g clip-path="url(#clip0_3591_10297)">
<rect x="0.5" width="24" height="24" rx="12" fill="#EE4020"/>
<g id="Union" filter="url(#filter0_d_3591_10297)">
<path fill-rule="evenodd" clip-rule="evenodd" d="M12.074 6.5C11.4936 6.5 11.0352 6.99238 11.0765 7.57125L11.4735 13.1285C11.4884 13.3378 11.6626 13.5 11.8724 13.5H13.1276C13.3374 13.5 13.5116 13.3378 13.5265 13.1285L13.9235 7.57125C13.9648 6.99238 13.5064 6.5 12.926 6.5H12.074ZM12.5 15.5C11.6716 15.5 11 16.1716 11 17C11 17.8284 11.6716 18.5 12.5 18.5C13.3284 18.5 14 17.8284 14 17C14 16.1716 13.3284 15.5 12.5 15.5Z" fill="white"/>
</g>
</g>
</g>
<defs>
<filter id="filter0_d_3591_10297" x="3" y="-1.5" width="19" height="28" filterUnits="userSpaceOnUse" color-interpolation-filters="sRGB">
<feFlood flood-opacity="0" result="BackgroundImageFix"/>
<feColorMatrix in="SourceAlpha" type="matrix" values="0 0 0 0 0 0 0 0 0 0 0 0 0 0 0 0 0 0 127 0" result="hardAlpha"/>
<feOffset/>
<feGaussianBlur stdDeviation="4"/>
<feComposite in2="hardAlpha" operator="out"/>
<feColorMatrix type="matrix" values="0 0 0 0 0 0 0 0 0 0 0 0 0 0 0 0 0 0 0.25 0"/>
<feBlend mode="normal" in2="BackgroundImageFix" result="effect1_dropShadow_3591_10297"/>
<feBlend mode="normal" in="SourceGraphic" in2="effect1_dropShadow_3591_10297" result="shape"/>
</filter>
<clipPath id="clip0_3591_10297">
<rect x="0.5" width="24" height="24" rx="12" fill="white"/>
</clipPath>
</defs>
</svg>
