<svg width="25" height="24" viewBox="0 0 25 24" fill="current" xmlns="http://www.w3.org/2000/svg">
<rect x="0.5" width="24" height="24" rx="12" fill="white"/>
<path fill-rule="evenodd" clip-rule="evenodd" d="M12.5 6C11.6716 6 11 6.67157 11 7.5C11 8.32843 11.6716 9 12.5 9C13.3284 9 14 8.32843 14 7.5C14 6.67157 13.3284 6 12.5 6ZM12.4311 11C11.9065 11 11.471 11.4054 11.4337 11.9288L11.0765 16.9288C11.0352 17.5076 11.4936 18 12.074 18H12.926C13.5064 18 13.9648 17.5076 13.9235 16.9288L13.5663 11.9288C13.529 11.4054 13.0935 11 12.5689 11H12.4311Z" fill="#0DC69C"/>
</svg>
