<svg width="24" height="24" viewBox="0 0 24 24" fill="current" xmlns="http://www.w3.org/2000/svg">
<g clip-path="url(#clip0_120_76035)">
<path d="M11 11C11 10.4477 10.5523 10 10 10C9.44772 10 9 10.4477 9 11V16C9 16.5523 9.44772 17 10 17C10.5523 17 11 16.5523 11 16V11Z" fill="current"/>
<path d="M15 11C15 10.4477 14.5523 10 14 10C13.4477 10 13 10.4477 13 11V16C13 16.5523 13.4477 17 14 17C14.5523 17 15 16.5523 15 16V11Z" fill="current"/>
<path fill-rule="evenodd" clip-rule="evenodd" d="M17 5V4.5C17 3.72889 16.5903 3.07138 16.0142 2.63934C15.4437 2.21142 14.717 2 14 2H10C9.28296 2 8.55634 2.21142 7.98579 2.63934C7.40973 3.07138 7 3.72889 7 4.5V5L4 5C3.44772 5 3 5.44772 3 6C3 6.55228 3.44772 7 4 7H4.5V19C4.5 20.6569 5.84315 22 7.5 22H16.5C18.1569 22 19.5 20.6569 19.5 19V7H20C20.5523 7 21 6.55229 21 6C21 5.44772 20.5523 5 20 5L17 5ZM10 4C9.65618 4 9.36538 4.10465 9.18579 4.23934C9.0117 4.3699 9 4.47546 9 4.5V5L15 5V4.5C15 4.47546 14.9883 4.3699 14.8142 4.23934C14.6346 4.10465 14.3438 4 14 4H10ZM6.5 7V19C6.5 19.5523 6.94772 20 7.5 20H16.5C17.0523 20 17.5 19.5523 17.5 19V7L6.5 7Z" fill="current"/>
</g>
<defs>
<clipPath id="clip0_120_76035">
<rect width="18" height="20" fill="current" transform="translate(3 2)"/>
</clipPath>
</defs>
</svg>
