<svg width="25" height="24" viewBox="0 0 25 24" fill="current" xmlns="http://www.w3.org/2000/svg">
<g id=" grap">
<path id="Subtract" fill-rule="evenodd" clip-rule="evenodd" d="M16.3847 3.16588C14.6306 0.278035 10.3694 0.278042 8.61532 3.16589L0.644873 16.2881C-1.15231 19.247 1.01987 23 4.52955 23H20.4705C23.9801 23 26.1523 19.2469 24.3551 16.2881L16.3847 3.16588ZM10.7503 9.07296C10.709 8.49409 11.1675 8.00171 11.7478 8.00171H12.5999C13.1802 8.00171 13.6387 8.49409 13.5973 9.07296L13.2004 14.6302C13.1854 14.8395 13.0112 15.0017 12.8014 15.0017H11.5463C11.3364 15.0017 11.1622 14.8395 11.1473 14.6302L10.7503 9.07296ZM13.6738 18.5017C13.6738 19.3301 13.0023 20.0017 12.1738 20.0017C11.3454 20.0017 10.6738 19.3301 10.6738 18.5017C10.6738 17.6733 11.3454 17.0017 12.1738 17.0017C13.0023 17.0017 13.6738 17.6733 13.6738 18.5017Z" fill="#FFC45B"/>
</g>
</svg>
