<svg width="24" height="24" viewBox="0 0 24 24" fill="current" xmlns="http://www.w3.org/2000/svg">
<g clip-path="url(#clip0_120_76045)">
<path d="M17.7071 9.70711C17.3166 10.0976 16.6834 10.0976 16.2929 9.70711L13 6.41421V16C13 16.5523 12.5523 17 12 17C11.4477 17 11 16.5523 11 16V6.41421L7.70711 9.7071C7.31658 10.0976 6.68342 10.0976 6.29289 9.7071C5.90237 9.31658 5.90237 8.68341 6.29289 8.29289L11.2929 3.29289C11.4845 3.10124 11.7346 3.00364 11.9858 3.0001C11.9905 3.00003 11.9953 3 12 3C12.0047 3 12.0095 3.00003 12.0142 3.0001C12.1438 3.0019 12.2674 3.02836 12.3806 3.07498C12.4994 3.12379 12.6106 3.19643 12.7071 3.29289L17.7071 8.29289C18.0976 8.68342 18.0976 9.31658 17.7071 9.70711Z" fill="current"/>
<path d="M5 20C5 19.4477 5.44772 19 6 19H18C18.5523 19 19 19.4477 19 20C19 20.5523 18.5523 21 18 21H6C5.44772 21 5 20.5523 5 20Z" fill="current"/>
</g>
<defs>
<clipPath id="clip0_120_76045">
<rect width="14" height="18" fill="current" transform="translate(5 3)"/>
</clipPath>
</defs>
</svg>
